<?xml version="1.0" encoding="utf-8"?>
<!-- Generator: Adobe Illustrator 19.2.1, SVG Export Plug-In . SVG Version: 6.00 Build 0)  -->
<svg version="1.1" id="Layer_1" xmlns="http://www.w3.org/2000/svg" xmlns:xlink="http://www.w3.org/1999/xlink" x="0px" y="0px"
	 viewBox="0 0 1853.7 861.9" style="enable-background:new 0 0 1853.7 861.9;" xml:space="preserve">
<style type="text/css">
	.st0{display:none;}
	.st1{display:inline;fill:#FFFFFF;stroke:#000000;stroke-width:3.1651;}
	.st2{fill:#FFFFFF;}
	.st3{fill:#F18B21;}
	.st4{stroke:#000000;stroke-width:10.1278;stroke-linejoin:round;stroke-miterlimit:10;}
	.st5{fill:#00AEEF;}
</style>
<g class="st0">
	<polygon class="st1" points="540.1,-7087.4 540.1,-7154.6 575.6,-7194.8 632.9,-7089 641,-7082.4 784.6,-7082.4 788.3,-7090.3 
		655.1,-7296.4 776.3,-7445.8 772.4,-7452.3 639.9,-7452.3 632.9,-7449.2 540.1,-7312.9 540.1,-7447.6 534.6,-7452.3 420.5,-7452.3 
		415.3,-7447.6 415.3,-7267 415.3,-7087.4 420.5,-7082.4 534.6,-7082.4 	"/>
	<polygon class="st1" points="1096.1,-7082.4 1102.1,-7090.3 1102.1,-7166.6 1096.1,-7173.7 938.9,-7173.7 938.9,-7219.5 
		1087.2,-7219.5 1093.8,-7226.6 1093.8,-7309.5 1087.2,-7317 938.9,-7317 938.9,-7365 1091.1,-7365 1097.7,-7372.8 1097.7,-7444.7 
		1091.1,-7452.3 819,-7452.3 812.8,-7446.8 812.8,-7090.3 819.5,-7082.4 	"/>
	<polygon class="st1" points="1245.2,-7082.4 1250.7,-7087.4 1250.7,-7226.1 1481.9,-7074.4 1488.9,-7079.8 1488.9,-7445.8 
		1482.9,-7452.3 1378.9,-7452.3 1374,-7445.8 1374,-7307.9 1142,-7461.2 1136,-7457.8 1136,-7087.9 1142,-7082.4 	"/>
	<polygon class="st1" points="1620.8,-7356.4 1620.8,-7087.4 1626.3,-7082.4 1744.9,-7082.4 1750.1,-7087.4 1750.1,-7356.4 
		1846.3,-7350.4 1850.2,-7354.3 1850.2,-7446.8 1845.7,-7452.3 1522.3,-7452.3 1517.8,-7446.8 1517.8,-7354.3 1521.5,-7350.4 	"/>
	<path class="st1" d="M2042.5-7068.9c117.8,0,179.6-56.3,179.6-144.1v-235.6c0-3.9,0-3.9-2.6-3.9c-32.8,0-88.9,0-118.3,0
		c-3.9,0-3.9,0.5-3.9,3.9v211.7c0,37.5-16.9,52.4-45.9,52.4c-29.5,0-45.9-15.4-45.9-52.4V-7448c0-4.4,0-4.4-3.9-4.4
		c-29.5,0-94.4,0-127.2,0c-2.6,0-2.6,0-2.6,3.4v230.7C1871.8-7134.3,1935.7-7068.9,2042.5-7068.9z"/>
	<path class="st1" d="M2438.7-7069.4c92.8,0,155.4-60,182.7-123.3c1.6-3.4,1-6.5-5-7l-106.3-32.8c-4.4-1-5,0-6.5,3.9
		c-10.9,19.5-29.5,35.4-62,35.4c-44.8,0-74.3-28.4-74.3-71.9s25.5-73.8,72.5-73.8c34.9,0,52.9,14.1,64.4,36c1,2.1,1.6,4.4,5,3.4
		l106.3-38.8c2.6-1,5-2.6,2.6-9.4c-24.5-62.3-82.9-116.3-177.8-116.3c-121.2,0-200.7,87.8-200.7,198.1
		C2239.6-7148.6,2320.9-7069.4,2438.7-7069.4z"/>
	<polygon class="st1" points="2753.9,-7082.4 2759.4,-7087.4 2759.4,-7154.6 2794.8,-7194.8 2852.1,-7089 2860.2,-7082.4 
		3003.6,-7082.4 3007.5,-7090.3 2874.3,-7296.4 2971.3,-7416.1 3099.5,-7190.6 3099.5,-7089.7 3103.4,-7081.9 3224.4,-7081.9 
		3230.4,-7089.7 3230.4,-7200.3 3353.1,-7445.3 3350,-7452.3 3226.2,-7452.3 3217.8,-7446.8 3165.5,-7310 3105,-7443.7 
		3095.6,-7452.3 2991.6,-7452.3 2958.2,-7452.3 2859.2,-7452.3 2852.1,-7449.2 2759.4,-7312.9 2759.4,-7447.6 2753.9,-7452.3 
		2639.7,-7452.3 2634.5,-7447.6 2634.5,-7267 2634.5,-7087.4 2639.7,-7082.4 	"/>
	<polygon class="st1" points="833.6,-7032.4 829.2,-7039.9 677.7,-7039.9 669.4,-7036 563.6,-6880.2 563.6,-7034.2 557.3,-7039.9 
		427,-7039.9 420.7,-7034.2 420.7,-6827.8 420.7,-6622.6 427,-6616.9 557.3,-6616.9 563.6,-6622.6 563.6,-6699.3 604,-6745.4 
		669.4,-6624.5 678.8,-6616.9 843,-6616.9 847.2,-6625.8 695.2,-6861.4 	"/>
	<polygon class="st1" points="871.4,-7039.9 865.2,-7034.2 865.2,-6827.8 865.2,-6622.6 871.4,-6616.9 1009,-6616.9 1015.3,-6622.6 
		1015.3,-6827.8 1015.3,-7034.2 1009,-7039.9 	"/>
	<polygon class="st1" points="1334.1,-7039.9 1328.3,-7032.4 1328.3,-6874.7 1063.3,-7049.9 1056.5,-7046.2 1056.5,-6623.2 
		1063.3,-6616.9 1181.3,-6616.9 1187.6,-6622.6 1187.6,-6781.1 1451.9,-6607.5 1460,-6613.8 1460,-7032.4 1453.2,-7039.9 	"/>
	<path class="st1" d="M1915.6-6798.6h-125.4c-2.6,0-3.1,1.8-5,6.3c-11.7,32.3-36.8,48.7-73,48.7c-53.7,0-85.5-30-85.5-83.7
		c0-48,31.8-82.4,82.9-82.4c28.7,0,59.2,13,73.5,40.7c1.8,5,5,8.1,9.9,6.3l116.5-51.9c5-2.6,4.4-4.4,1.8-11.2
		c-30-73.5-95.4-126.7-201.5-126.7c-133.5,0-230.2,93.1-230.2,223.4c0,141.5,101.1,226.5,226.5,226.5c64.9,0,99-24.2,128.5-46.1
		l73,40.7c1.8,0.5,4.4,1.8,6.8,1.8c5.7,0,5.7-2.6,5.7-2.6c0-61.3,0-127.2,0-185.3C1920.6-6797.8,1920.6-6798.6,1915.6-6798.6z"/>
	<path class="st1" d="M2142.9-7039.9h-182.7c-5.7,0-6.3,1.3-6.3,6.3c0,158.5,0,252.6,0,411.1c0,6.3,0.5,5.5,6.3,5.5h167.1
		c152.2,0,226.5-68.6,226.5-211.4C2353.8-6965.7,2286.3-7039.9,2142.9-7039.9z M2124.7-6734.2H2096v-188.5h30
		c44.3,0,77.9,24.2,77.9,92.3C2203.9-6757.4,2166.6-6734.2,2124.7-6734.2z"/>
	<path class="st1" d="M2598.5-7053c-124.9,0-228.9,91-228.9,225.2c0,127.2,95.4,225.7,228.9,225.7c120.9,0,228.9-93.1,228.9-225.2
		C2827.4-6966.2,2717.6-7053,2598.5-7053z M2598.5-6746.7c-46.9,0-79.2-30-79.2-81.8c0-45.6,30.5-77.9,79.2-77.9
		c48,0,79.2,30,79.2,77.9C2677.8-6778,2643.4-6746.7,2598.5-6746.7z"/>
	<polygon class="st1" points="3286.9,-7048 3072.9,-6876.5 2866,-7044.9 2857.1,-7040.5 2842.8,-6620.8 2849,-6616.9 
		2963.2,-6616.9 2971.3,-6625.8 2975.7,-6783.5 3063,-6705.5 3074.2,-6705.5 3169.6,-6783.5 3175.4,-6621.3 3180.8,-6616.4 
		3310.6,-6616.4 3315.1,-6625 3295.5,-7044.9 	"/>
</g>
<g>
	<path d="M1662.7,255.7l6.7,13.8l4.5,2.8h88.1l3.9-2l9.8-12.3l1.1-3.1v-68.8l76.9-155.7v-4.2l-7.6-16.6l-4.5-2.8h-87.8l-2.8,0.8
		l-11.2,7.6l-2,2.5l-19.6,53l-23.3-50.5l-1.1-1.4l-10.9-10.1l-3.6-1.4l-77.5,1.4l-75.5-2l-2.2,0.6l-9.8,4.5l-2.2,2L1485.2,57V20.8
		l-1.7-3.6l-10.7-9.5l-3.4-1.4H1390l-3.4,1.4l-10.7,9.5l-1.7,3.6v26.4c-24.7-28.6-60.9-44.9-103.3-44.9c-51.4,0-93.7,23-118.4,60.3
		V28.4c0-14-9.3-21.9-18-21.9h-73.2c-10.9,0-19.9,9.8-19.9,21.9v131.1c0,15.7-4.5,15.7-11.5,15.7s-11.5,0-11.5-15.7V28.7
		c0-15.2-11.5-22.2-19.4-22.2h-78.6c-3.1,0-6.2,0.8-8.7,2.5l-0.6-0.6l-3.9-2H699.6L696,8.1l-5.3,5.9l-5.1-5.9L682,6.4l-73,0.3
		l-3.9,2.2L595,23.2l-0.8,2.8v58.2L470.2,0h-5.3l-18.8,11.5l-2-2.5l-3.9-2H264.6l-3.4,1.4l-8.1,7.6L250,9.8L245.5,7h-91.2l-2,0.3
		l-9.8,4.5l-2,1.7L111,57.8v-34l-2-3.9L95.7,8.2l-3.1-1.1H17.7l-3.4,1.4L1.7,20.3L0,23.9v233.5l1.7,3.6l9.3,8.4l-5.9,5.3l-1.7,3.6
		v266.9l1.7,3.6l11.2,10.1l3.4,1.1h89.8l3.4-1.4l11.2-10.1l1.7-3.6v-46.6l5.1-5.6l30,56.1l1.1,1.4l10.9,8.7l3.1,1.1h113.1l2.2-1.4
		h0.3l3.4,1.4h94.5l3.4-1.4l9-8.1l9,8.1l3.4,1.4h82.2l3.4-1.4l11.2-10.1l1.7-3.6v-72.4l144.7,95l5.6-0.3l16.3-12.6l2-3.9v-55.3
		c26.4,45.5,74.9,73.2,135.8,73.2c38.4,0,62.3-12.6,80.8-25.5l35.9,19.9l1.1,0.6l2,0.8c1.7,0.6,5.1,2,9.3,2c8.1,0,14-3.6,17.4-8.7
		c2.8,1.4,5.9,2,9.3,2l0,0h105c51.6,0,90.9-12.6,117.3-37.3c12.9-12.1,22.7-27.2,29.2-45.2c24.1,55,78.6,91.5,145.4,91.5
		c58.4,0,108.6-29.5,136.1-74.6l-1.7,52.8l2.5,4.5l12.6,7.6l2.5,0.8h79.1l3.6-1.7l11.5-12.3l1.4-3.4l2-65.9l30.3,27.2l3.4,1.1h15.7
		l3.1-1.1l36.2-29.5l2.5,71.6l1.7,3.6l10.7,9.5l3.4,1.1h92l4.5-2.8l7.3-14.6l0.6-2.5l-11.6-272.9l-3.4-4.5l-19.1-6.7l-4.8,0.8
		l-128,103.6l-109.7-89.2h74.1l4.5-2.8l8.7-17.4l-0.3-4.8l-81.1-122.4l36.8-45.5l65.1,114.2v60.9L1662.7,255.7z M1270.7,113.1
		c14.9,0,20.5,4.8,25,13.2c4.8,10.1,13.5,11.2,17.1,11.2c2,0,4.2-0.3,6.5-1.1l55.2-20.2v46.9l-55.6-16.8l-0.8-0.3
		c-2-0.6-3.9-0.8-5.6-0.8c-5.3,0-12.9,2-17.4,11.8c-5.1,9-12.3,12.9-23.6,12.9c-18.5,0-29.2-10.1-29.2-27.8
		C1242.3,123,1251.9,113.1,1270.7,113.1z M1374.2,232.1v24.4c-1.7,0-3.6,0-5.3,0c-8.4,0-16.6,0.6-24.4,1.7
		C1356,250.9,1365.8,242,1374.2,232.1z M1284.1,279.3c-26.7,16-47.4,39.3-60.3,67.9c-6.2-17.7-15.4-32.6-27.5-44.6
		c-23-23-55.8-35.6-97.7-37.6c7.3-3.6,13.8-7.9,19.6-12.6c13.2-10.9,22.7-24.7,28.3-41c22.7,42.4,67.4,68.5,123.2,68.5
		C1274.9,280.1,1279.6,279.8,1284.1,279.3z M952.7,332.3c-19.6-37.6-51.9-62-94.3-71.3l0,0l1.7-3.6V103.3l41.8,2.5v64.8
		c0,43.8,23.3,78.3,60.6,96.3c-6.2,3.4-9.8,9.8-9.8,18.2V332.3z M680.5,278.7h0.3l15.7-12.1l2-3.9V106.4l48-2.8v154.1l1.7,3.6l7.9,7
		c-32.3,12.3-58.4,34.2-75.2,62.6v-51.1L680.5,278.7z M566.9,277.3l-0.8,2.8l-0.3,72.4l-122.1-80.8h0.6l3.9-2l3.6-4.5l7.9,5.6
		l2.8,0.8h73l3.4-1.4l10.7-9.5l1.7-3.6v-59.8l99.6,65.4l-70.2-0.3l-3.9,2L566.9,277.3z M868.2,414.3c-8.1,0-14.3,4.5-18.2,13.5
		l-0.6,1.4c-4.8,13.2-13.8,19.1-29.5,19.1c-24.7,0-36.2-11.2-36.2-35.1c0-21.3,12.9-34.2,34.5-34.2c10.1,0,23.9,3.9,30.3,15.4
		c3.6,8.7,10.9,13.8,19.6,13.8c2.5,0,5.1-0.6,7.6-1.4l73.2-32.6l0.6-0.3c0.8-0.6,2-1.1,2.8-1.7v42.7c-2.2-0.6-4.5-1.1-7-1.1h-77.2
		v0.5H868.2L868.2,414.3z M1074.5,371h1.7c15.4,0,31.4,4.8,31.4,40.4c0,38.2-18.5,42.7-32.3,42.7h-0.8L1074.5,371L1074.5,371z
		 M1368.9,380.9c20.5,0,32.3,11.5,32.3,31.4c0,20.8-12.3,33.7-32.3,33.7c-20.8,0-32.3-12.1-32.3-33.7
		C1336.6,392.6,1348.7,380.9,1368.9,380.9z M1515.1,269.2l-2.8,4.2l-2.2,66.2c-7.9-15.4-18.5-29.2-31.4-41.3
		c-11.8-10.9-25.5-19.9-40.1-26.7h30.9l3.4-1.4l10.7-9.5l1.7-3.6V217l2-2.2l25.3,46.3l1.1,1.4l5.6,4.5L1515.1,269.2z M278.7,309.6
		v188.6l-67.6-105L278.7,309.6z M109.4,261l1.7-3.6V217l2-2.2l25.3,46.3l1.1,1.4l10.1,8.1l3.1,1.1h9.5l-36.8,54.2v-47.4l-1.7-3.6
		l-11.2-10.2l-3.4-1.4h-2.8L109.4,261z M186.3,123.8l60.1-74.1V217L186.3,123.8z"/>
	<g>
		<g>
			<polygon class="st2" points="94.3,235.5 94.3,194 116.2,169 151.5,234.7 156.6,238.6 245.5,238.6 247.8,233.8 165.6,106.1 
				240.5,13.5 238,9.6 156,9.6 151.5,11.6 94.3,96 94.3,12.7 90.9,9.6 20.2,9.6 16.8,12.7 16.8,124.4 16.8,235.5 20.2,238.6 
				90.9,238.6 			"/>
			<path d="M247.2,241.1h-91.5l-6.2-4.8l-34-62.9L96.7,195v41.8l-5.1,4.5H19.4l-5.1-4.5V11.6l5.1-4.5h72.7l5.1,4.5v76.3l53-78.3
				l5.6-2.5H240l3.9,6.7L169,106.4l82.2,127.4L247.2,241.1z M157.7,236.1h86.4l1.1-2l-83.1-128L237,13.5l-0.6-1.4h-80l-3.1,1.4
				l-61.5,90.7V13.8l-1.7-1.7H21.3l-1.7,1.7v220.6l1.7,1.7h68.8l1.7-1.7v-41.3l25-28.3l37,68.2L157.7,236.1z"/>
		</g>
		<g>
			<polygon class="st2" points="438.3,238.6 442.3,233.8 442.3,186.7 438.3,182.2 341.2,182.2 341.2,153.8 433,153.8 437.2,149.3 
				437.2,98 433,93.5 341.2,93.5 341.2,63.8 435.5,63.8 439.4,59 439.4,14.4 435.5,9.6 266.9,9.6 263.2,13 263.2,233.8 267.1,238.6 
							"/>
			<path d="M439.7,241.1H266l-5.3-6.5V11.8L266,7h170.6l5.3,6.5v46.6l-5.3,6.5h-92.9v24.7h90.6l5.3,6.5v53.3L434,157h-90.4v23.2h96
				l5.1,5.9v49.1L439.7,241.1z M268.3,236.1h168.9l2.5-3.1v-45.5l-2.2-2.8h-98.8v-33.4h93.4l2.5-2.8V99.1l-2.8-3.1h-93.2V61.2h95.7
				l2.8-3.1V15.2l-2.8-3.1H268l-2.2,2V233L268.3,236.1z"/>
		</g>
		<g>
			<polygon class="st2" points="530.7,238.6 534,235.5 534,149.9 677.4,243.6 681.9,240.3 681.9,13.5 678,9.6 613.4,9.6 610.6,13.5 
				610.6,99.1 467,4.3 463.3,6.2 463.3,235.2 467,238.6 			"/>
			<path d="M677.4,246.7l-140.6-92.3v82.2l-5.1,4.5H466l-5.3-4.8V4.8l6.5-3.4l140.9,93.2V12.7l4.2-5.6h66.8l5.1,5.6v229L677.4,246.7
				z M531.5,145.1l145.6,95.4l2-1.4V14.6l-2.2-2.5h-62l-1.7,2.2v89.2L466.7,7.1l-1.1,0.6v226.5l2.2,2h61.7l1.7-1.7v-89.2h0.3V145.1z
				"/>
		</g>
		<g>
			<polygon class="st2" points="763.6,69.1 763.6,235.5 766.9,238.6 840.2,238.6 843.6,235.5 843.6,69.1 903,72.7 905.3,70.5 
				905.3,13 902.8,9.6 702.4,9.6 699.6,13 699.6,70.5 701.8,72.7 			"/>
			<path d="M841,241.1h-75.2l-5.1-4.5V71.9l-60.1,3.6l-3.9-3.9V12.1l3.9-5.1h202.9l3.9,5.1v59.5l-3.9,3.9l-57.8-3.6v165L841,241.1z
				 M767.8,236.1h71.3l1.7-1.7V66.3l60.9,3.9l0.8-0.8V13.8l-1.4-1.7H703.2l-1.4,1.7v55.6l0.8,0.8l63.1-3.9v168.1L767.8,236.1z"/>
		</g>
		<g>
			<path class="st2" d="M1024.6,247c73,0,111.1-34.8,111.1-89.2v-146c0-2.2,0-2.2-1.7-2.2c-20.2,0-55,0-73.2,0
				c-2.2,0-2.2,0.3-2.2,2.2v131.1c0,23.3-10.4,32.6-28.3,32.6c-18.2,0-28.3-9.5-28.3-32.6V12.4c0-2.8,0-2.8-2.2-2.8
				c-18.2,0-58.4,0-78.6,0c-1.7,0-1.7,0-1.7,2v142.8C918.8,206.6,958.3,247,1024.6,247z"/>
			<path d="M1024.6,249.5c-32.3,0-59.8-9.5-79.4-27.5c-18.5-17.1-28.9-41-28.9-67.6V11.6c0-2.8,0.6-4.5,4.2-4.5h78.6
				c4.2,0,5.1,1.7,5.1,5.3v130.8c0,20.8,7.9,29.7,25.8,29.7c17.7,0,25.8-9.5,25.8-29.7V11.8c0-3.1,0.8-5.1,5.1-5.1h73.2
				c3.9,0,4.2,2.2,4.2,5.1v145.9c0,28.1-10.1,51.1-29.2,67.1C1089.4,241.4,1061,249.5,1024.6,249.5z M921.6,12.1v142.3
				c0,25.3,9.5,47.7,27.2,64c18.5,17.1,44.9,26.1,76,26.1c69,0,108.6-31.7,108.6-86.7V12.1H1061v130.8c0,23.3-10.4,35.1-30.9,35.1
				s-30.9-11.8-30.9-35.1V12.4c0,0,0,0,0-0.3C999.3,12.1,921.6,12.1,921.6,12.1z"/>
		</g>
		<g>
			<path class="st2" d="M1269.8,246.7c57.5,0,96.3-37,113.1-76.3c1.1-2,0.6-3.9-3.1-4.5l-65.7-20.2c-2.8-0.6-3.1,0-4.2,2.2
				c-6.7,12.1-18.2,21.9-38.4,21.9c-27.8,0-46-17.7-46-44.6s16-45.7,44.9-45.7c21.6,0,32.8,8.7,39.8,22.2c0.6,1.4,1.1,2.8,3.1,2
				l65.9-23.9c1.7-0.6,3.1-1.7,1.7-5.6c-15.2-38.4-51.4-71.8-110-71.8c-74.9,0-124.3,54.4-124.3,122.6
				C1146.6,197.9,1196.9,246.7,1269.8,246.7z"/>
			<path d="M1269.8,249.2c-36.5,0-67.9-11.8-90.9-34.2c-23-22.5-35.1-53.6-35.1-89.8c0-72.4,53.3-125.2,126.8-125.2
				c52.2,0,94.3,27.5,112.5,73.5c1.7,4.8,0.6,7.6-3.1,9l-65.9,24.1c-3.9,1.4-5.3-1.7-5.9-2.8l-0.3-0.3
				c-7.6-14.3-19.1-20.8-37.6-20.8c-26.7,0-42.4,16-42.4,42.9c0,25.5,17.1,42.1,43.5,42.1c16.6,0,28.6-6.7,36.2-20.5
				c0.8-2,1.7-3.9,4.8-3.9c0.6,0,1.4,0,2.2,0.3l65.7,20.2c2.5,0.3,4.2,1.1,5.1,2.8c0.8,1.4,0.8,3.4-0.3,5.3
				C1369.2,209.1,1330.4,249.2,1269.8,249.2z M1270.9,5.1c-70.4,0-121.8,50.5-121.8,120.1c0,34.8,11.5,64.5,33.4,86.2
				s51.9,32.8,87.3,32.8c57.8,0,95.1-38.7,110.8-74.9c0-0.3,0.3-0.6,0.3-0.6c-0.3,0-0.6-0.3-1.1-0.3h-0.6l-65.9-20.2
				c-0.3,0-0.3,0-0.6,0c-0.3,0.3-0.3,0.8-0.6,1.1v0.3c-8.4,15.4-22.2,23.3-40.7,23.3c-28.9,0-48.5-19.1-48.5-47.1
				c0-29.7,18.2-48.3,47.4-48.3c20.2,0,33.7,7.6,42.1,23.6l0.3,0.6l0,0l65.4-23.9c0.3-0.3,0.6-0.3,0.6-0.3s0.3-0.6-0.3-2.2
				C1370.3,54.2,1343.1,5.1,1270.9,5.1z"/>
		</g>
		<g>
			<polygon class="st2" points="1465.1,238.6 1468.5,235.5 1468.5,194 1490.4,169 1525.8,234.7 1530.8,238.6 1619.8,238.6 
				1622,233.8 1539.8,106.1 1599.6,32 1679,171.8 1679,234.4 1681.5,238.9 1756.4,238.9 1760.1,234.4 1760.1,165.6 1836.1,14.1 
				1834.2,9.6 1757.5,9.6 1752.2,13 1719.9,97.7 1682.3,14.9 1676.7,9.6 1612.2,9.6 1591.4,9.6 1530.2,9.6 1525.8,11.6 1468.5,96 
				1468.5,12.7 1465.1,9.6 1394.4,9.6 1391.1,12.7 1391.1,124.4 1391.1,235.5 1394.4,238.6 			"/>
			<path d="M1757.5,241.4h-77.7l-3.4-6.7v-62.3l-77.2-135.5l-56.4,69.6l82.2,127.4l-3.6,7.6h-91.2l-6.2-5.1l-34-62.9l-18.8,21.6
				v41.8l-5.1,4.5h-72.7l-5.1-4.5V11.6l5.1-4.5h72.7l5.1,4.5v76.3l53-78.3l5.6-2.5H1678l6.7,6.5l35.1,77.7l30.6-79.7l6.5-4.2h79.1
				l3.4,7l-76.3,152.4v68.8L1757.5,241.4z M1682.9,236.3h72.1l2.5-3.1V165l75.8-151.3l-0.8-1.7h-74.4l-3.6,2.5l-34.2,89.8
				l-39.8-87.8l-4.8-4.5h-144.8l-3.4,1.4l-61.7,90.6V13.8l-1.7-1.7h-68.8l-1.7,1.7v220.6l1.7,1.7h68.8l1.7-1.7v-41.3l25-28.3
				l37,68.2l3.9,3.1h86.4l1.1-2l-82.5-128l63.4-78.3l81.7,143.4v62.6L1682.9,236.3z"/>
		</g>
		<g>
			<polygon class="st2" points="275.8,269.7 273.3,265 179.3,265 174.3,267.5 108.6,364 108.6,268.6 104.9,265 24.1,265 20.2,268.6 
				20.2,396.3 20.2,523.4 24.1,526.8 104.9,526.8 108.6,523.4 108.6,476 133.8,447.4 174.3,522.3 180.2,526.8 281.7,526.8 
				284.5,521.5 190.3,375.5 			"/>
			<path d="M283.1,529.6H179.3l-7-5.6l-0.3-0.6l-38.7-71.8l-22.2,25v47.7l-5.3,4.8H23l-5.3-4.8V266.9l5.3-4.8h82.8l5.3,4.8V355
				l61.5-90.4l6.2-2.8h96l4.2,7.3l-85.6,105.8l94,145.6L283.1,529.6z M181,524.3h99.1l1.4-2.8l-94.6-146.2l85.9-105.8l-1.1-2h-91.8
				l-3.9,1.7l-69.9,102.7V269.7l-2.2-2H25l-2.2,2v252.6l2.2,2h78.9l2.2-2v-47.4l28.1-32l42.1,77.7L181,524.3z"/>
		</g>
		<g>
			<polygon class="st2" points="299.1,265 295.5,268.6 295.5,396.3 295.5,523.4 299.1,526.8 384.7,526.8 388.4,523.4 388.4,396.3 
				388.4,268.6 384.7,265 			"/>
			<path d="M385.6,529.6h-87.3l-5.3-4.8V267.5l5.3-4.8h87.3l5.3,4.8v257.3L385.6,529.6z M300.3,524.3h83.3l2.2-2V269.7l-2.2-2h-83.3
				l-2.2,2v252.6L300.3,524.3z"/>
		</g>
		<g>
			<polygon class="st2" points="585.9,265 582.3,269.7 582.3,367.4 418.1,258.8 413.9,261.3 413.9,523.1 418.1,526.8 491.1,526.8 
				495,523.4 495,425.5 658.9,532.7 663.9,528.8 663.9,269.7 659.7,265 			"/>
			<path d="M658.9,535.8L497.5,430v94.6l-5.3,4.8h-74.9l-5.9-5.3V259.4l7-3.6l161.4,106.6v-93.7l4.8-6.5h76l5.6,6.2v261.5
				L658.9,535.8z M492.5,420.7l166.1,108.9l2.5-2v-257l-2.8-3.1H587l-2.2,2.8v101.6l-167-110.3l-1.7,0.8v259.3l2.8,2.5h71l2.2-2
				V420.7H492.5z"/>
		</g>
		<g>
			<path class="st2" d="M946,414.5h-77.7c-1.7,0-2,1.1-3.1,3.9c-7.3,20.2-22.7,30-45.2,30c-33.1,0-53-18.5-53-51.6
				c0-29.7,19.6-51.1,51.4-51.1c17.7,0,36.8,8.1,45.5,25c1.1,3.1,3.1,5.1,6.2,3.9l72.1-32c3.1-1.7,2.8-2.8,1.1-7
				c-18.5-45.5-59.2-78.3-124.9-78.3c-82.8,0-142.6,57.5-142.6,138.3c0,87.6,62.6,140.3,140.3,140.3c40.1,0,61.5-15.2,79.7-28.6
				l45.2,25c1.1,0.3,2.8,1.1,4.2,1.1c3.4,0,3.4-1.7,3.4-1.7c0-37.9,0-78.9,0-114.8C949.1,414.8,949.1,414.5,946,414.5z"/>
			<path d="M816.6,538.3c-84.2,0-142.8-58.7-142.8-142.8c0-81.7,60.9-140.9,145.1-140.9c60.9,0,106.1,28.3,127.1,80
				c1.7,4.2,2.8,7.6-2.2,10.1l-72.4,32c-1.1,0.3-2,0.6-2.8,0.6c-1.7,0-4.8-0.8-6.7-5.6c-9.3-17.4-28.3-23.6-43.2-23.6
				c-29.2,0-48.8,19.4-48.8,48.5c0,31.1,18.2,49.1,50.2,49.1c21.6,0,35.9-9.5,42.7-28.3l0.3-0.6c1.1-2.5,2.2-4.8,5.3-4.8h77.7
				c4.2,0,5.6,1.4,5.6,5.3v114.8c0,0.3,0,4.2-5.9,4.2c-1.7,0-3.1-0.6-4.2-1.1c-0.3,0-0.6-0.3-0.8-0.3l-0.6-0.3l-43.9-24.4
				C879.2,523.1,857.3,538.3,816.6,538.3z M818.9,259.9c-39.3,0-74.9,13.5-100.5,38.2c-25.5,24.7-39.6,59.2-39.6,97.7
				c0,41.3,14,76,40.1,101c24.7,23.6,59.5,36.5,97.4,36.5c40.4,0,61.2-15.4,78-28.1l1.4-1.1l46.6,25.8c0.3,0,0.6,0.3,0.8,0.3
				c0.8,0.3,1.7,0.6,2.5,0.6c0.3,0,0.6,0,0.8,0V417.1l0,0c-0.3,0-0.3,0-0.6,0h-77.3c-0.3,0.3-0.6,1.1-0.8,1.7l-0.3,0.6
				c-7.6,20.8-23.9,31.7-47.4,31.7c-35.4,0-55.6-19.9-55.6-54.4c0-32,21.6-53.6,53.9-53.6c16.6,0,37.6,7,47.7,26.4v0.3
				c0.3,0.8,1.1,2.5,2,2.5c0.3,0,0.6,0,0.8-0.3l72.1-32c0.6-0.3,0.6-0.3,0.8-0.6c0-0.6-0.6-2-1.1-3.4
				C921,287.1,877.5,259.9,818.9,259.9z"/>
		</g>
		<g>
			<path class="st2" d="M1086.6,265H973.5c-3.4,0-3.9,0.8-3.9,3.9c0,98.2,0,156.3,0,254.5c0,3.9,0.3,3.4,3.9,3.4h103.6
				c94.3,0,140.3-42.4,140.3-131.1C1217.3,311,1175.5,265,1086.6,265z M1075.3,454.4h-17.7V337.6h18.5c27.5,0,48.3,15.2,48.3,57.2
				C1124.5,440.1,1101.4,454.4,1075.3,454.4z"/>
			<path d="M972.1,529.6c-4.5,0-5.1-2.8-5.1-5.9V269.2c0-3.9,1.1-6.5,6.5-6.5h113.1c88.4,0,133,44.9,133,133.6
				c0,89.8-46.6,133.6-142.8,133.6L972.1,529.6z M972.4,267.8c0,0.3,0,0.6,0,1.1v254.5c0,0.3,0,0.6,0,0.8h1.4h103.6
				c46.9,0,80.8-10.4,103.8-31.7c22.7-21.3,34-53,34-96.8c0-42.1-10.4-74.4-31.1-95.4c-21.3-21.9-53.9-32.8-96.8-32.8H974.2
				C972.9,267.5,972.4,267.8,972.4,267.8z M1075.3,456.9h-20.2V335.1h21c23.3,0,50.8,10.4,50.8,59.8
				C1127,448.8,1094.7,456.9,1075.3,456.9z M1060.2,451.9h15.2c21.3,0,46.6-9.8,46.6-57c0-36.2-15.4-54.7-45.7-54.7h-16
				L1060.2,451.9L1060.2,451.9z"/>
		</g>
		<g>
			<path class="st2" d="M1368.9,256.8c-77.2,0-141.7,56.4-141.7,139.5c0,78.9,59.2,139.8,141.7,139.8c74.9,0,141.7-57.5,141.7-139.5
				C1510.6,310.7,1442.7,256.8,1368.9,256.8z M1368.9,446.5c-28.9,0-49.1-18.5-49.1-50.5c0-28.1,18.8-48.3,49.1-48.3
				c29.7,0,49.1,18.5,49.1,48.3C1418,427.2,1396.7,446.5,1368.9,446.5z"/>
			<path d="M1368.9,538.9c-40.4,0-77.2-14.6-103.6-41c-26.1-26.1-40.7-62.3-40.7-101.3c0-80.8,62-142,144.2-142
				c37.9,0,73.5,13.5,100.2,38.2c28.3,26.1,44.1,63.1,44.1,104.1c0,39.3-15.4,75.8-43.5,102.1
				C1442.4,524.5,1406.8,538.9,1368.9,538.9z M1368.9,259.4c-79.4,0-139.2,58.9-139.2,136.9c0,37.9,14,72.4,39,97.7
				c25.5,25.5,61.2,39.6,100.2,39.6c36.5,0,71-13.5,97.1-38.4c26.9-25.5,42.1-60.6,42.1-98.5
				C1508.1,330.4,1459.2,259.4,1368.9,259.4z M1368.9,449.1c-31.4,0-51.6-20.8-51.6-53c0-30.3,20.8-50.8,51.6-50.8
				c31.4,0,51.6,19.9,51.6,50.8C1420.5,427.2,1399.2,449.1,1368.9,449.1z M1368.9,350.3c-27.8,0-46.6,18.2-46.6,45.7
				c0,29.7,18,48,46.6,48c27.8,0,46.6-19.4,46.6-48C1415.5,367.7,1397.5,350.3,1368.9,350.3z"/>
		</g>
		<g>
			<polygon class="st2" points="1795.2,259.9 1662.7,366.3 1534.5,261.9 1528.8,264.7 1520.1,524.5 1523.8,526.8 1594.5,526.8 
				1599.6,521.5 1602.4,423.8 1656.5,472.1 1663.3,472.1 1722.5,423.8 1725.8,524.3 1729.5,527.3 1809.7,527.3 1812.6,522 
				1800.5,261.9 			"/>
			<path d="M1811.4,529.9h-82.8l-5.1-4.5l-3.4-96.3l-55.8,45.5h-9l-50.8-45.2l-2.5,93.2l-6.5,7h-72.4l-5.9-3.4l9-262.9l8.1-4.2
				l128,104.1l131.9-105.8l8.4,3.1l12.1,262.4L1811.4,529.9z M1730.3,524.8h77.7l1.7-3.4l-11.8-257.6l-2.5-0.8l-133,106.6
				l-128.5-104.7l-2.5,1.4l-8.7,257.1l2,1.1h68.8l3.6-3.9l2.8-102.1l57.5,51.4h5.1l62.3-51.1l3.6,104.4L1730.3,524.8z"/>
		</g>
	</g>
	<g>
		<path class="st3" d="M160.8,226.8c-12.1-20.8-34-62.9-34.2-63.1l-7.9-15.4l-36.5,41.3v37.3H28.6V21.4h53.6v112.3l21.6-30.9
			c6.2-9,36.8-52.5,55.6-81.4h59.5c-26.4,32.6-62.6,77.2-62.6,77.2l-5.3,6.7l7.3,10.9c38.2,58.9,59.5,92,71.3,110.3h-68.8
			L160.8,226.8L160.8,226.8z"/>
		<polygon class="st3" points="275,226.8 275,21.4 427.7,21.4 427.7,51.7 329.2,51.7 329.2,105.3 425.1,105.3 425.1,142.1 
			329.2,142.1 329.2,194 430.2,194 430.2,226.8 		"/>
		<path class="st3" d="M475.1,226.8c-0.8-78.3-0.6-126,0-203.5c46.3,29.7,109.2,72.1,128.2,85l19.4,13.2V21.4h47.7
			c0.6,51.4,0.8,119.8,0,203.7c-55.8-35.1-128.5-84.7-129.1-85.3l-18.5-12.6v99.6H475.1z"/>
		<polygon class="st3" points="775.4,226.8 775.4,56.5 711.4,60.4 711.4,21.4 893.5,21.4 893.5,60.4 831.8,56.5 831.8,226.8 		"/>
		<path class="st3" d="M1024.6,235.2c-56.1,0-94-32.6-94-80.8v-133h58.9v121.5c0,28.1,14.6,44.3,40.1,44.3s40.1-16.3,40.1-44.3V21.4
			h53.6v136.4C1123.9,207.7,1088.5,235.2,1024.6,235.2z"/>
		<path class="st3" d="M1269.8,234.9c-66.8,0-111.4-44.1-111.4-109.7c0-64.3,47.4-110.8,112.5-110.8c59.8,0,86.2,36.8,96.3,57.8
			l-50.2,18c-10.4-14.9-25.5-22.2-46.6-22.2c-34,0-56.7,23-56.7,57.5c0,33.1,23.9,56.4,57.8,56.4c19.9,0,35.4-7.6,45.7-22.7
			l50.5,15.7C1357.1,194.5,1327.9,234.9,1269.8,234.9z"/>
		<path class="st3" d="M1535,226.8c-10.9-18.8-30-55.6-34-62.9l-8.1-15.7l-36.2,41.3v37.3h-53.6V21.4h53.6v112.3l21.6-30.9
			c0.3-0.6,34.8-49.7,55.6-81.4h59.5c-26.4,32.6-62.6,77.2-62.6,77.2l-5.3,6.7l5.9,9.3c18.8,29.2,51.6,79.7,72.4,112H1535V226.8z"/>
		<path class="st3" d="M1691,227.1v-58.7l-2.2-3.9c-11.8-20.5-51.1-88.4-81.7-143.1h65.4c12.6,28.3,36.8,80.8,36.8,81.4l11.5,25.3
			l10.1-26.1c0.6-1.1,20.2-51.4,30.9-80.5h57.5c-31.4,63.1-69.3,138.3-69.6,138.9l-1.4,2.5v64.3H1691L1691,227.1L1691,227.1z"/>
		<path class="st3" d="M183.8,515c-12.9-22.2-36.8-67.9-39.6-73.2l-8.1-15.4l-39.6,44.8v43.5H32V276.5h64.8v124.6l21.6-30.9
			c0.3-0.6,40.4-57.8,64-93.7h72.4C224.8,314.1,181,368,181,368l-5.3,6.7l4.8,7.3c0.6,0.6,55.8,85.9,85.9,133H183.8z"/>
		<polygon class="st3" points="307.3,515 307.3,277 376.6,277 376.6,515 		"/>
		<path class="st3" d="M425.7,515c-1.1-90.9-0.8-146.2,0-237.4c57.8,36.8,140,92.9,149.9,99.3l18.8,12.9v-113h57.8
			c0.6,60.1,1.1,139.8,0,237.7c-63.1-39.3-146.8-96.5-150.4-99.1l-18.5-12.6v112.3L425.7,515L425.7,515z"/>
		<path class="st3" d="M816.6,524c-75.5,0-128.2-52.8-128.2-128.2c0-73.2,55-126.3,130.8-126.3c52.8,0,92,23.3,111.4,65.9
			l-58.4,26.1c-13.2-19.9-35.6-27.2-53.3-27.2c-37.9,0-63.1,25.3-63.1,62.9c0,39.3,24.7,63.7,64.8,63.7c25.8,0,45.2-12.1,54.7-34
			h62.3V517l-42.1-23.3l-6.2,4.5C872.5,510,853.7,524,816.6,524z"/>
		<path class="st3" d="M981.6,515V276.8h105.2c81.1,0,118.7,37.9,118.7,119c0,82.2-39.6,119-128.2,119h-95.7L981.6,515L981.6,515z
			 M1045.9,466.2h29.7c38.2,0,60.9-26.7,60.9-71.3c0-62.3-42.1-69-60.1-69h-30.3v140.3H1045.9z"/>
		<path class="st3" d="M1368.9,524.3c-74.1,0-129.9-55-129.9-128c0-72.7,55.8-127.7,129.9-127.7c62.9,0,129.9,44.9,129.9,128
			C1498.8,468.4,1441.6,524.3,1368.9,524.3z M1368.9,336c-36.5,0-60.9,24.1-60.9,60.1c0,37.3,24.4,62.6,60.9,62.6
			c35.9,0,60.9-25.8,60.9-62.6C1429.8,360.1,1405.4,336,1368.9,336z"/>
		<path class="st3" d="M1737.6,515.6l-3.9-116.2l-18.5,15.4c-0.3,0.3-36.8,30.6-55,44.9c-16.8-14-46-41.3-49.4-44.3l-19.4-18.2
			l-3.4,117.9h-55.8c0.8-67.9,3.6-154.1,7.9-234c41.5,31.4,97.9,79.1,114.8,94l7.9,7l7.9-6.7c18-15.4,76-64,119.3-96.5
			c5.3,90.1,7.9,152.1,10.7,236.6h-62.9v0.1H1737.6z"/>
	</g>
	<g id="AND_8_">
		<path d="M694.8,477.7c-93.4,0-169.2,39.8-169.2,89s76,89,169.2,89s169.2-39.8,169.2-89S788.3,477.7,694.8,477.7z"/>
		<g>
			<g>
				<path class="st2" d="M593.2,594.7h-28.9l46-78.3h2.5l46,78.3h-28.9l-4.2-9.5h-28.1L593.2,594.7z M611.5,549.8l-7,20.8l14.3,0.3
					L611.5,549.8z"/>
				<path d="M661.7,596.4h-32.8l-4.2-9.5h-26.1l-4.2,9.5h-32.9l48-81.4h4.2L661.7,596.4z M630.8,593h25l-44.1-74.9h-0.6L567,593h25
					l4.2-9.5h30.3L630.8,593z M621.3,572.5l-19.1-0.3l9.3-27.5L621.3,572.5z M606.7,568.9l9.8,0.3l-5.1-14.3L606.7,568.9z"/>
			</g>
			<g>
				<path class="st2" d="M653.3,516.4l49.7,31.1v-30.3h26.4v79.4h-1.7l-50.6-31.4v29.2h-26.4v-78.3h2.5v0.3H653.3z"/>
				<path d="M731,598.3h-3.9l-48.5-30v28.1h-29.5V515h4.8l47.4,29.7v-28.9H731V598.3z M675.5,562.4L728,595v-75.8h-23v31.4
					L653.4,518h-0.6v74.9h23v-30.6L675.5,562.4L675.5,562.4z"/>
			</g>
			<g>
				<path class="st2" d="M776.8,517.5c11.8,0,25.5,4.2,33.1,18.8c6.2,12.3,5.6,32-2.2,44.6c-7.9,12.3-22.2,13.8-32,13.8h-36.5v-77.2
					L776.8,517.5L776.8,517.5z M784.3,566.9c2.5-5.6,2.2-19.9-1.7-25.3c-4.2-5.9-11.8-5.1-17.1-5.1v38.4
					C776.8,575.3,781,574.8,784.3,566.9z"/>
				<path d="M776.5,596.4h-0.8h-38.2v-80.5h39.3c9.3,0,25.8,2.5,34.5,19.9c6.5,13.2,5.6,33.4-2.5,46.3
					C802.6,591.6,792.2,596.4,776.5,596.4z M740.8,593h35.7c14.3,0,24.1-4.2,29.7-12.9c7.3-11.8,8.4-30.6,2.2-42.9
					c-7.9-15.7-23.3-18-31.7-18h-35.9V593L740.8,593z M765.5,577h-1.7v-41.8h1.7c0.6,0,1.1,0,1.4,0c0.6,0,1.1,0,1.7,0
					c5.6,0,11.5,0.8,15.2,5.9c4.5,5.9,4.5,21,2,26.7C782.1,576.7,776.5,577,765.5,577z M767.2,538.6V574c10.1,0,12.9-1.1,15.7-7.3
					c2.2-5.3,2-18.8-1.4-23.6C777.9,538.3,772,538.3,767.2,538.6z"/>
			</g>
		</g>
	</g>
	<g id="Hurrican_Bay_8_">
		<g>
			<path class="st4" d="M1834.2,598.3l-7.9,1.7l-84.2,15.7l0,0l-82.8,15.4h-114.5l-2.2,10.7c-3.4-5.3-7.6-10.1-12.3-14l-1.1-0.8
				c-5.1-3.6-11.2-6.5-19.1-9c-6.2-2-12.9-3.1-19.4-3.6l-110.6-8.1l-14,160l-5.3,51.9l-0.6,6.7l5.6,0.3l113.9,8.7
				c2,0.3,4.2,0.3,6.2,0.3c6.2,0,12.3-0.8,18-2.2l-1.4,6.7l-1.4,7.3h212.4l-6.5-24.7l-16.3-72.1l14.6,22.7l13.2,60.3l1.4,7.3
				l2.5-0.6l109.2-20.8l-2.8-11.2h0.3l-15.4-65.7l19.4-133.6L1834.2,598.3z"/>
			<path class="st4" d="M1172.4,630.6l-157.1,12.6l-2.2-10.1l-1.7-6.7H893.2l-7.6,34l-13.5-6.7c-7.6-3.6-14-6.5-19.4-8.1
				c-10.1-3.4-21.3-5.3-33.1-6.2c-2.8-0.3-5.6-0.3-8.4-0.3c-24.4,0-44.1,7.3-58.7,21.6v-34.5H640.4v13.5l0,0v15.4
				c-1.4-1.7-3.1-3.1-4.8-4.5c-7.6-6.5-20.8-14.3-41.3-14.3H490c-1.1-1.1-2-2.2-3.1-3.1c-7-7-19.6-15.7-40.1-16.8l-108.6-7
				l-1.4,17.4H191.1l-2-14.3l-5.3,0.8l-64.8,7.3l0,0l-109.8,12l0,0l-2,0.3l28.6,215l0.8,7l179.3-20.2l-0.3-2.8
				c13.2,8.1,30.6,12.1,51.1,12.1c27.8,0,49.1-7,63.4-21.3l71.3,4.8l0,0l83.9,5.3v17.4h204.3l-6.2-10.1H751v-7.3
				c3.9,3.9,8.7,7.6,13.8,10.7c11.2,6.7,25.8,10.7,44.9,11.8c5.1,0.3,9.8,0.6,14,0.6c5.1,0,9.8-0.3,13.8-0.8c7.9-0.8,16-3.1,25-6.7
				l18.5-7.6v-0.6h146.2l1.4,16.6l174.8-14l-0.8-7.6h128.8v-12.1l0,0V620.8H1172v9.8L1172.4,630.6L1172.4,630.6z"/>
		</g>
		<g>
			<g>
				<path class="st5" d="M1829.7,607.3l0.6-5.1l-3.4,0.8l-86.7,16.3l0,0l-81.4,15.4l0,0h-111.7l-3.4,15.4c-1.1-2-2.2-3.6-3.4-5.3
					c-3.6-6.2-8.1-10.9-12.3-14.3l-0.6-0.6l-0.6-0.3c-4.8-3.4-10.7-6.2-18-8.4c-5.9-1.7-12.3-3.1-18.8-3.4l-107.5-8.1l-17,196.6
					l-0.3,3.9l3.1,0.3l111.4,8.4c2,0.3,3.9,0.3,5.9,0.3l0,0c8.1,0,15.2-1.4,21.3-3.6l-2.5,10.7l0.6,2.5l2.2,1.7h198.1l-26.4-116.7
					l28.1,44.1l13.5,60.9l1.1,4.8l1.7-0.6l101.3-19.1l-13.8-62.6L1829.7,607.3z M1325.7,624.4h-150.2v9l-161.9,12.9h-0.6l-2.8-12.6
					l-1.1-4.2h-1.7H896l-7.9,35.6l-17.1-8.4c-7.6-3.6-13.5-6.5-18.8-8.1c-9.8-3.4-20.8-5.3-32.3-6.2c-2.8-0.3-5.6-0.3-8.1-0.3
					c-23.9,0-42.9,7.3-56.7,21c-1.7,1.7-3.4,3.6-5.1,5.6v-35.1v-4.2h-2.8h-103v34.8c-3.4-4.8-6.7-8.4-10.1-11.2
					c-7-6.2-19.6-13.5-39-13.5H489.4c-1.4-1.4-2.5-2.8-3.9-4.2c-6.7-6.7-18.8-14.9-38.2-16l-105.2-7l-1.4,17.1H189.1l-1.1-9
					l-0.6-4.8l-2.2,0.3l-68.2,7.6l0,0L13.2,635.4l26.4,199.5l0.6,4.5l2.2-0.3l68.2-7.6l35.9-3.9l0,0l68.2-7.6l-0.8-5.6
					c13.5,9.8,31.7,14.6,54.2,14.6c27.5,0,48.5-7,62.6-21.3l74.4,4.8l0,0l84.2,5.6V831v4.5h2.8h194.8l-6.7-10.1h69.3v-11.2
					c4.8,5.9,10.7,10.9,17.4,14.9c10.9,6.5,25.3,10.4,43.8,11.5c5.1,0.3,9.8,0.6,14,0.6c5.1,0,9.5-0.3,13.5-0.6
					c7.6-0.8,15.7-3.1,24.4-6.7l17.1-7v-1.1h150.7l1.1,12.1l0.6,4.5l2.2-0.3l167.5-13.8l-0.8-7.9h127.5V628.9v-4.5H1325.7z"/>
			</g>
		</g>
		<path class="st2" d="M1153.6,662.3l12.3,130.5l-42.1,3.4l-31.4-53.6h-1.1l5.6,55.8l-38.4,3.1L1046.2,671l46.9-3.6l24.4,36.2h0.8
			l-3.4-37.9L1153.6,662.3z"/>
		<g>
			<g>
				<path class="st2" d="M1776.9,735l8.1,37.3l-41.8,7.9l-8.1-37.3l-53.9-84.7l43.2-8.1l19.6,35.4l0.8-0.3l3.4-39.6l42.4-7.9
					L1776.9,735z"/>
			</g>
			<g>
				<path class="st2" d="M1617.2,772.1h-28.6l-3.9,20.5h-42.4l29.5-131.1h63.1l29.7,131.1h-42.9L1617.2,772.1z M1612.2,736.4
					l-9-37.6h-1.1l-8.1,37.6H1612.2z"/>
			</g>
			<g>
				<path class="st2" d="M126.6,741.2l-24.1,2.8l6.5,49.7l-43.8,4.8L46.6,658.7l43.8-4.8l6.5,49.4l24.1-2.8l-6.5-49.4l44.1-5.1
					l18.5,139.8l-44.1,5.1L126.6,741.2z"/>
			</g>
			<g>
				<path class="st2" d="M316.5,656.4v86.8c0,7.6-1.1,14.6-3.1,21c-2,6.5-4.8,11.5-8.1,14.9c-8.1,8.1-21.6,12.3-41.3,12.3
					c-20.8,0-35.1-5.1-42.7-15.2c-4.5-5.9-7.3-13.2-8.4-22.7c-0.3-2.8-0.6-7-0.6-12.3v-84.7h41.3l0.3,73.5c0,5.6,0.3,9.3,1.1,11.5
					c1.1,3.9,4.2,5.9,9,5.9c5.1,0,8.1-2.2,9.3-6.5c0.6-2,0.6-5.1,0.6-9.3l-0.3-75.2H316.5z"/>
			</g>
			<g>
				<path class="st2" d="M369.3,641.3l75.5,5.1c8.1,0.6,14.3,3.1,18.8,7.3c7.3,7,10.1,17.7,9,32c-1.1,15.4-6.2,26.1-14.6,32.3
					c-3.9,2.8-9.5,4.5-17.1,5.3l28.6,56.1l-47.4-3.1l-18.2-45.2h-0.8l-2.8,43.8l-41-2.8L369.3,641.3z M405.5,706.4l9.3,0.6
					c3.9,0.3,7.3-0.3,9.8-1.1c3.6-1.7,5.6-5.6,6.2-11.5c0.6-8.7-2.8-13.2-10.4-13.5l-12.6-0.8L405.5,706.4z"/>
			</g>
			<g>
				<path class="st2" d="M1410.1,638.8l77.7,5.9c4.2,0.3,8.1,1.1,12.3,2.2c3.9,1.1,7,2.5,9,3.9c7,5.6,10.1,15.4,8.7,29.5
					c-1.1,12.1-4.8,20.8-11.2,26.1c-3.4,3.1-9.5,5.1-18,5.9v0.8c6.7,1.1,11.8,2.8,15.2,5.1c7.6,5.1,10.7,14,9.5,27.5
					c-0.8,10.9-4.2,19.9-10.1,26.7c-5.3,6.5-13.2,9.3-24.1,8.4l-81.1-6.2L1410.1,638.8z M1448,698l14.6,1.1c4.8,0.3,8.1,0,9.5-1.4
					c2-1.7,3.1-4.8,3.4-8.7c0.6-7-2.5-10.7-9.3-11.2l-16.3-1.1L1448,698z M1443.5,747.1l13.5,1.1c5.1,0.3,8.4,0,10.4-1.4
					c2.2-1.4,3.6-4.5,4.2-9c0.6-6.7-2.2-10.4-8.1-10.7l-18-1.4L1443.5,747.1z"/>
			</g>
			<g>
				<path class="st2" d="M518.6,666.5h75.8c8.1,0,14.6,2,19.4,6.2c7.6,6.5,11.5,16.8,11.5,31.1c0,15.4-3.9,26.7-12.1,33.4
					c-3.6,3.1-9,5.3-16.6,6.5l32.8,54.2H582l-21.9-44.1h-0.8l0.6,44.1h-41.3V666.5z M559.8,729.1h9.3c3.9,0,7.3-0.6,9.5-2
					c3.4-2,5.1-5.9,5.1-12.1c0-8.7-3.6-12.9-11.5-12.9h-12.6V729L559.8,729.1L559.8,729.1z"/>
			</g>
			<g>
				<path class="st2" d="M716.4,656.4v131.3h-42.7V656.4H716.4z"/>
			</g>
			<g>
				<path class="st2" d="M857,680.6l-3.4,43.5c-8.1-3.4-16.8-5.3-26.1-5.9c-8.1-0.6-14,0.6-18.2,3.1c-4.2,2.8-6.7,8.4-7.3,17.4
					c-0.6,7.6,0.6,12.9,3.1,16.8c3.4,4.5,9.5,7.3,18.5,7.9c6.5,0.3,15.4-0.3,26.9-2.2l-2.8,37.3c-6.2,2.5-11.5,3.9-16.3,4.5
					c-5.3,0.6-12.9,0.6-21.9,0c-13.8-0.8-23.6-3.4-30.3-7.3c-16.3-9.8-23.3-31.1-20.8-63.7c2-24.1,7.6-40.7,16.8-50
					c9.3-9.3,23.3-13.5,41.8-12.3c9,0.6,17.4,2.2,25,4.5C846.1,675.2,851.1,677.5,857,680.6z"/>
			</g>
			<g>
				<path class="st2" d="M965.3,767.3h-28.9l-3.9,20.5h-42.4l29.5-131.1h63.1l29.7,131.1h-42.9L965.3,767.3z M960.3,731.4l-9-37.6
					h-1.1l-8.4,37.6H960.3z"/>
			</g>
			<g>
				<path class="st2" d="M1295.4,651.7v39h-49.7v14.9h49.7v29.7h-49.7v14.3h49.7V783h-89.8V651.9L1295.4,651.7z"/>
			</g>
		</g>
	</g>
</g>
</svg>
